<?xml version="1.0" encoding="UTF-8"?>
<svg width="65px" height="14px" viewBox="0 0 65 14" version="1.1" xmlns="http://www.w3.org/2000/svg" xmlns:xlink="http://www.w3.org/1999/xlink">
    <title>logo</title>
    <g id="Page-1" stroke="none" stroke-width="1" fill="none" fill-rule="evenodd">
        <g id="logo" transform="translate(0.5464, 0.0088)" fill="#000000">
            <path d="M59.178513,11.4508109 C59.178513,10.7760109 59.398013,10.2070109 59.832913,9.73941094 C60.267813,9.27626094 60.812413,9.04248094 61.458413,9.04248094 C62.104413,9.04248094 62.653313,9.27626094 63.096713,9.73941094 C63.540013,10.2025109 63.763813,10.7760109 63.763813,11.4508109 C63.763813,12.1257109 63.540013,12.6903109 63.096713,13.1491109 C62.653313,13.6034109 62.104413,13.8328109 61.458413,13.8328109 C60.812413,13.8328109 60.272013,13.6034109 59.832913,13.1491109 C59.393813,12.6947109 59.178513,12.1257109 59.178513,11.4508109 Z" id="Path"></path>
            <path d="M57.852713,10.8465109 C57.101113,11.8875109 56.252513,12.6462109 55.310913,13.1182109 C54.369413,13.5945109 53.292713,13.8283109 52.085213,13.8283109 C51.105613,13.8283109 50.197813,13.6519109 49.357613,13.2946109 C48.517413,12.9373109 47.799613,12.4477109 47.195813,11.8169109 C46.592013,11.1862109 46.119213,10.4583109 45.781413,9.62469094 C45.439413,8.79543094 45.270513,7.89560094 45.270513,6.92960094 C45.270513,5.96360094 45.443613,5.05936094 45.794013,4.21687094 C46.144513,3.37879094 46.625813,2.64216094 47.233813,2.01139094 C47.846013,1.38063094 48.568013,0.89101194 49.395613,0.53372494 C50.227413,0.17643794 51.130913,0 52.110513,0 C53.212513,0 54.230013,0.24260194 55.163113,0.72780694 C56.096313,1.21301094 56.860513,1.85701094 57.455813,2.65980094 L55.044913,4.87851094 C54.694513,4.40213094 54.272313,4.02278094 53.774013,3.72725094 C53.275813,3.43613094 52.722713,3.29057094 52.110513,3.29057094 C51.620713,3.29057094 51.168913,3.38761094 50.746713,3.57728094 C50.324513,3.76695094 49.965613,4.02720094 49.657413,4.35802094 C49.353413,4.68443094 49.112713,5.06818094 48.935413,5.50927094 C48.762313,5.94596094 48.673613,6.42234094 48.673613,6.93401094 C48.673613,7.44568094 48.762313,7.94853094 48.935413,8.38521094 C49.108513,8.82190094 49.349213,9.20124094 49.657413,9.52324094 C49.961413,9.84083094 50.328713,10.0922109 50.759413,10.2775109 C51.185813,10.4583109 51.662913,10.5510109 52.186513,10.5510109 C52.887413,10.5510109 53.495413,10.3701109 54.023213,10.0040109 C54.546713,9.63792094 54.947813,9.23653094 55.230713,8.79984094 L57.852713,10.8553109 L57.852713,10.8465109 Z" id="Path"></path>
            <path d="M30.577113,13.5592109 L30.577113,0.27787294 L33.853613,0.27787294 L33.853613,1.34532094 C34.343413,0.92628294 34.883813,0.59546194 35.479113,0.36168094 C36.074513,0.12348994 36.728913,0.00439454 37.446713,0.00439454 C38.337613,0.00439454 39.165113,0.19406494 39.925113,0.57781794 C40.685113,0.96156994 41.326913,1.48206094 41.850513,2.13929094 C42.268513,2.66861094 42.593613,3.29055094 42.821613,4.00071094 C43.049613,4.71088094 43.163613,5.64159094 43.163613,6.79284094 L43.163613,13.5548109 L39.756213,13.5548109 L39.756213,6.52377094 C39.756213,5.86654094 39.688713,5.35046094 39.557813,4.97553094 C39.426913,4.60060094 39.236913,4.28742094 38.996213,4.03159094 C38.523413,3.53756094 37.885813,3.29055094 37.083613,3.29055094 C36.716213,3.29055094 36.370013,3.34348094 36.049113,3.45376094 C35.724013,3.56403094 35.432713,3.70077094 35.170913,3.86397094 C34.909113,4.02718094 34.676913,4.20803094 34.474213,4.39770094 C34.271613,4.58737094 34.111113,4.76822094 33.988713,4.93142094 L33.988713,13.5592109 L30.581413,13.5592109 L30.577113,13.5592109 Z" id="Path"></path>
            <path d="M27.436113,0.27831994 L27.436113,13.5597109 L24.159613,13.5597109 L24.159613,12.4922109 C23.653013,12.9686109 23.108313,13.3082109 22.521413,13.5200109 C21.934513,13.7317109 21.339213,13.8332109 20.727013,13.8332109 C19.836113,13.8332109 19.017013,13.6347109 18.278113,13.2421109 C17.535013,12.8495109 16.910113,12.3334109 16.403413,11.6938109 C16.002313,11.1645109 15.685613,10.5470109 15.461913,9.84566094 C15.233913,9.14432094 15.119913,8.29742094 15.119913,7.31378094 L15.119913,0.27831994 L18.527213,0.27831994 L18.527213,7.45493094 C18.527213,8.05923094 18.582113,8.52679094 18.696113,8.86644094 C18.810113,9.20608094 18.962113,9.49279094 19.156313,9.73098094 C19.418113,10.0397109 19.717913,10.2559109 20.059913,10.3750109 C20.401913,10.4941109 20.735413,10.5514109 21.069013,10.5514109 C21.436313,10.5514109 21.774113,10.4985109 22.078113,10.3882109 C22.382113,10.2779109 22.665013,10.1412109 22.918313,9.97799094 C23.171613,9.81479094 23.391213,9.63394094 23.572713,9.44427094 C23.754313,9.25460094 23.910513,9.07375094 24.033013,8.91054094 L24.033013,0.27831994 L27.440313,0.27831994 L27.436113,0.27831994 Z" id="Path"></path>
            <path d="M8.8817842e-16,13.5592109 L8.8817842e-16,0.27787294 L3.276443,0.27787294 L3.276443,1.34532094 C3.766223,0.92628294 4.306663,0.59546194 4.901993,0.36168094 C5.497333,0.12348994 6.151773,0.00439454 6.869553,0.00439454 C7.760433,0.00439454 8.587993,0.19406494 9.347993,0.57781794 C10.108013,0.96156994 10.749813,1.48206094 11.273313,2.13929094 C11.691313,2.66861094 12.016413,3.29055094 12.244413,4.00071094 C12.472413,4.71088094 12.586413,5.64159094 12.586413,6.79284094 L12.586413,13.5548109 L9.179103,13.5548109 L9.179103,6.52377094 C9.179103,5.86654094 9.111543,5.35046094 8.980663,4.97553094 C8.849773,4.60060094 8.659773,4.28742094 8.419103,4.03159094 C7.946213,3.53756094 7.308663,3.29055094 6.506433,3.29055094 C6.139103,3.29055094 5.792883,3.34348094 5.471993,3.45376094 C5.146883,3.56403094 4.855553,3.70077094 4.593773,3.86397094 C4.331993,4.02718094 4.099773,4.20803094 3.897103,4.39770094 C3.694443,4.58737094 3.533993,4.76822094 3.411553,4.93142094 L3.411553,13.5592109 L8.8817842e-16,13.5592109 Z" id="Path"></path>
        </g>
    </g>
</svg>